<svg width="22" height="22" viewBox="0 0 22 22" fill="none" xmlns="http://www.w3.org/2000/svg">
<path d="M2.85114 16.5625C2.90692 16.3572 2.78364 16.0717 2.66598 15.8659C2.62935 15.8046 2.58961 15.7451 2.54692 15.6878C1.53783 14.1575 0.999982 12.3646 1.00005 10.5316C0.98364 5.26984 5.34676 1 10.7421 1C15.4474 1 19.375 4.25969 20.2928 8.58672C20.4304 9.22824 20.4998 9.88249 20.5 10.5386C20.5 15.8078 16.3052 20.1447 10.9099 20.1447C10.0521 20.1447 8.89426 19.9291 8.26285 19.7523C7.63145 19.5756 7.00098 19.3412 6.83832 19.2784C6.67197 19.2145 6.49529 19.1816 6.31707 19.1814C6.12241 19.1807 5.92962 19.2194 5.75036 19.2953L2.57083 20.4428C2.50117 20.4728 2.42736 20.4921 2.35192 20.5C2.29239 20.4998 2.23348 20.4878 2.17862 20.4647C2.12375 20.4416 2.07402 20.4078 2.03229 20.3654C1.99057 20.3229 1.95768 20.2726 1.93555 20.2173C1.91341 20.1621 1.90246 20.103 1.90333 20.0434C1.90724 19.9912 1.91666 19.9395 1.93145 19.8892L2.85114 16.5625Z" stroke="black" stroke-width="1.5" stroke-miterlimit="10" stroke-linecap="round"/>
</svg>
