<svg width="22" height="22" viewBox="0 0 22 22" fill="none" xmlns="http://www.w3.org/2000/svg">
<path d="M20.6745 0.499359H1.99296C1.68555 0.499483 1.39077 0.621655 1.1734 0.839024C0.956036 1.05639 0.833864 1.35117 0.83374 1.65858V20.3401C0.833864 20.6475 0.956036 20.9423 1.1734 21.1597C1.39077 21.3771 1.68555 21.4992 1.99296 21.4993H11.3337V13.2494H8.82358V10.2494H11.3337V7.85873C11.3337 5.14654 13.2148 3.66998 15.6378 3.66998C16.797 3.66998 18.0439 3.75717 18.3336 3.79561V6.62826H16.4033C15.0851 6.62826 14.8339 7.2517 14.8339 8.17045V10.2494H17.9745L17.5644 13.2494H14.8339V21.4993H20.6745C20.9819 21.4992 21.2767 21.3771 21.4941 21.1597C21.7114 20.9423 21.8336 20.6475 21.8337 20.3401V1.65858C21.8336 1.35117 21.7114 1.05639 21.4941 0.839024C21.2767 0.621655 20.9819 0.499483 20.6745 0.499359Z" fill="black"/>
</svg>
