<svg width="24" height="24" viewBox="0 0 24 24" fill="none" xmlns="http://www.w3.org/2000/svg">
<path d="M16.3748 3.24971C17.5342 3.25317 18.645 3.71525 19.4648 4.53503C20.2846 5.35481 20.7467 6.46568 20.7501 7.62502V16.3747C20.7467 17.534 20.2846 18.6449 19.4648 19.4647C18.645 20.2845 17.5342 20.7465 16.3748 20.75H7.62515C6.46581 20.7465 5.35495 20.2845 4.53517 19.4647C3.71539 18.6449 3.25331 17.534 3.24984 16.3747V7.62502C3.25331 6.46568 3.71539 5.35481 4.53517 4.53503C5.35495 3.71525 6.46581 3.25317 7.62515 3.24971H16.3748ZM16.3748 1.49986H7.62515C4.25625 1.49986 1.5 4.25611 1.5 7.62502V16.3747C1.5 19.7436 4.25625 22.4999 7.62515 22.4999H16.3748C19.7437 22.4999 22.5 19.7436 22.5 16.3747V7.62502C22.5 4.25611 19.7437 1.49986 16.3748 1.49986Z" fill="black"/>
<path d="M17.6873 7.6248C17.4277 7.6248 17.1739 7.54782 16.9581 7.40361C16.7422 7.25939 16.574 7.0544 16.4747 6.81457C16.3753 6.57475 16.3493 6.31085 16.4 6.05625C16.4506 5.80165 16.5756 5.56778 16.7592 5.38422C16.9427 5.20067 17.1766 5.07566 17.4312 5.02502C17.6858 4.97438 17.9497 5.00037 18.1895 5.09971C18.4294 5.19905 18.6343 5.36728 18.7786 5.58312C18.9228 5.79896 18.9998 6.05271 18.9998 6.3123C19.0001 6.48477 18.9664 6.6556 18.9006 6.81501C18.8348 6.97442 18.7381 7.11926 18.6162 7.24121C18.4942 7.36316 18.3494 7.45982 18.19 7.52565C18.0306 7.59148 17.8597 7.62517 17.6873 7.6248Z" fill="black"/>
<path d="M11.9998 8.49913C12.692 8.49913 13.3687 8.70441 13.9443 9.08901C14.5199 9.47361 14.9686 10.0203 15.2335 10.6598C15.4984 11.2994 15.5677 12.0032 15.4327 12.6821C15.2976 13.3611 14.9642 13.9848 14.4747 14.4743C13.9852 14.9638 13.3616 15.2971 12.6826 15.4322C12.0036 15.5672 11.2999 15.4979 10.6603 15.233C10.0207 14.9681 9.47409 14.5195 9.08948 13.9439C8.70488 13.3683 8.4996 12.6915 8.4996 11.9993C8.50059 11.0713 8.86968 10.1816 9.52587 9.52539C10.1821 8.8692 11.0718 8.50012 11.9998 8.49913ZM11.9998 6.74928C10.9614 6.74928 9.94637 7.05719 9.08301 7.63407C8.21966 8.21094 7.54675 9.03088 7.14939 9.99019C6.75203 10.9495 6.64806 12.0051 6.85064 13.0235C7.05321 14.0419 7.55322 14.9774 8.28745 15.7116C9.02167 16.4458 9.95713 16.9458 10.9755 17.1484C11.9939 17.351 13.0495 17.247 14.0088 16.8496C14.9682 16.4523 15.7881 15.7794 16.365 14.916C16.9418 14.0527 17.2498 13.0376 17.2498 11.9993C17.2498 10.6069 16.6966 9.27154 15.7121 8.28697C14.7275 7.30241 13.3921 6.74928 11.9998 6.74928Z" fill="black"/>
</svg>
