<svg width="22" height="22" viewBox="0 0 22 22" fill="none" xmlns="http://www.w3.org/2000/svg">
<path d="M19.4872 0.500656H1.96112C1.00347 0.500656 0.166748 1.18972 0.166748 2.13612V19.7011C0.166748 20.6527 1.00347 21.5006 1.96112 21.5006H19.482C20.4449 21.5006 21.1667 20.6471 21.1667 19.7011V2.13612C21.1724 1.18972 20.4449 0.500656 19.4872 0.500656ZM6.67628 18.0052H3.66784V8.65128H6.67628V18.0052ZM5.27612 7.22909H5.25456C4.29175 7.22909 3.66831 6.51237 3.66831 5.61518C3.66831 4.70159 4.30815 4.00175 5.29253 4.00175C6.2769 4.00175 6.87924 4.69643 6.90081 5.61518C6.90034 6.51237 6.2769 7.22909 5.27612 7.22909ZM17.6713 18.0052H14.6628V12.8906C14.6628 11.6653 14.225 10.8282 13.1366 10.8282C12.305 10.8282 11.8128 11.3907 11.5939 11.9386C11.5119 12.1355 11.4899 12.4036 11.4899 12.6774V18.0052H8.48143V8.65128H11.4899V9.95299C11.9277 9.32956 12.6116 8.43237 14.203 8.43237C16.1778 8.43237 17.6717 9.73409 17.6717 12.5405L17.6713 18.0052Z" fill="black"/>
</svg>
