<svg width="22" height="22" viewBox="0 0 22 22" fill="none" xmlns="http://www.w3.org/2000/svg">
<path fill-rule="evenodd" clip-rule="evenodd" d="M18.4407 3.55077C17.47 2.57955 16.3167 1.80993 15.0473 1.28622C13.7779 0.762501 12.4175 0.495033 11.0443 0.499209C5.28149 0.499209 0.590244 5.16702 0.5879 10.9055C0.585351 12.7327 1.06701 14.528 1.98384 16.1086L0.500244 21.4992L6.04321 20.0522C7.57753 20.8834 9.29508 21.3184 11.0401 21.3178H11.0443C16.8066 21.3178 21.4974 16.6495 21.5002 10.9115C21.5037 9.54306 21.235 8.18754 20.7098 6.92386C20.1845 5.66019 19.4132 4.51358 18.4407 3.55077ZM11.0443 19.5614H11.0406C9.48495 19.5618 7.95763 19.1455 6.61743 18.3558L6.30008 18.1683L3.01087 19.027L3.88884 15.8353L3.68212 15.5072C2.8123 14.1301 2.35145 12.5343 2.35321 10.9055C2.35321 6.13686 6.25368 2.25702 11.0476 2.25702C13.3473 2.25291 15.5544 3.16243 17.1836 4.78551C18.8127 6.4086 19.7304 8.61234 19.7349 10.912C19.733 15.6811 15.8345 19.5614 11.0443 19.5614ZM15.811 13.0837C15.5499 12.9534 14.2641 12.3244 14.026 12.2376C13.7879 12.1509 13.6121 12.1073 13.4382 12.368C13.2643 12.6286 12.7632 13.2117 12.6109 13.3875C12.4585 13.5633 12.3062 13.5825 12.0451 13.4522C11.784 13.3219 10.9416 13.0476 9.94368 12.1617C9.16696 11.4722 8.6429 10.6209 8.49055 10.3608C8.33821 10.1006 8.47415 9.95952 8.60493 9.83014C8.72258 9.71342 8.86602 9.52639 8.9968 9.37452C9.12758 9.22264 9.17118 9.11389 9.2579 8.94045C9.34461 8.76702 9.30149 8.61514 9.23633 8.4853C9.17118 8.35545 8.64852 7.0753 8.43102 6.55452C8.21868 6.04733 8.00352 6.11624 7.84321 6.10827C7.69087 6.10077 7.51508 6.09889 7.34212 6.09889C7.20989 6.10234 7.07979 6.133 6.95994 6.18897C6.84009 6.24494 6.73307 6.32502 6.64555 6.42421C6.40602 6.68483 5.73102 7.31483 5.73102 8.59358C5.73102 9.87233 6.66852 11.1098 6.7979 11.2833C6.92727 11.4567 8.64008 14.0831 11.2609 15.2095C11.7475 15.4179 12.2448 15.6007 12.7505 15.757C13.3763 15.9548 13.9459 15.9272 14.3959 15.8601C14.8979 15.7856 15.9427 15.2311 16.1598 14.6236C16.3768 14.0161 16.3773 13.4958 16.3121 13.3875C16.247 13.2792 16.0726 13.2136 15.811 13.0837Z" fill="black"/>
</svg>
